<?xml version="1.0" encoding="UTF-8" standalone="no"?>
<!DOCTYPE svg PUBLIC "-//W3C//DTD SVG 1.1//EN"
 "http://www.w3.org/Graphics/SVG/1.1/DTD/svg11.dtd">
<!-- Generated by graphviz version 2.40.1 (20161225.0304)
 -->
<!-- Title: dependencies Pages: 1 -->
<svg width="985pt" height="284pt"
 viewBox="0.00 0.00 985.00 284.00" xmlns="http://www.w3.org/2000/svg" xmlns:xlink="http://www.w3.org/1999/xlink">
<g id="graph0" class="graph" transform="scale(1 1) rotate(0) translate(4 280)">
<title>dependencies</title>
<polygon fill="#ffffff" stroke="transparent" points="-4,4 -4,-280 981,-280 981,4 -4,4"/>
<text text-anchor="start" x="467.5091" y="-42.4" font-family="sans-serif" font-weight="bold" font-size="14.00" fill="#000000">Legend</text>
<polygon fill="#ffffb3" stroke="transparent" points="254.5,-10 254.5,-30 274.5,-30 274.5,-10 254.5,-10"/>
<text text-anchor="start" x="278.129" y="-15.4" font-family="sans-serif" font-size="14.00" fill="#000000"> &#160;Declarations</text>
<polygon fill="#8dd3c7" stroke="transparent" points="367.5,-10 367.5,-30 387.5,-30 387.5,-10 367.5,-10"/>
<text text-anchor="start" x="391.2251" y="-15.4" font-family="sans-serif" font-size="14.00" fill="#000000"> &#160;Module</text>
<polygon fill="#80b1d3" stroke="transparent" points="453.5,-10 453.5,-30 473.5,-30 473.5,-10 453.5,-10"/>
<text text-anchor="start" x="477.2812" y="-15.4" font-family="sans-serif" font-size="14.00" fill="#000000"> &#160;Bootstrap</text>
<polygon fill="#fdb462" stroke="transparent" points="550.5,-10 550.5,-30 570.5,-30 570.5,-10 550.5,-10"/>
<text text-anchor="start" x="574.1732" y="-15.4" font-family="sans-serif" font-size="14.00" fill="#000000"> &#160;Providers</text>
<polygon fill="#fb8072" stroke="transparent" points="646.5,-10 646.5,-30 666.5,-30 666.5,-10 646.5,-10"/>
<text text-anchor="start" x="670.2258" y="-15.4" font-family="sans-serif" font-size="14.00" fill="#000000"> &#160;Exports</text>
<g id="clust1" class="cluster">
<title>cluster_AppModule</title>
<polygon fill="none" stroke="#000000" stroke-dasharray="1,5" points="8,-70 8,-268 969,-268 969,-70 8,-70"/>
</g>
<g id="clust2" class="cluster">
<title>cluster_AppModule_declarations</title>
<polygon fill="none" stroke="#000000" points="16,-78 16,-130 961,-130 961,-78 16,-78"/>
</g>
<g id="clust12" class="cluster">
<title>cluster_AppModule_bootstrap</title>
<polygon fill="none" stroke="#000000" points="435,-208 435,-260 559,-260 559,-208 435,-208"/>
</g>
<!-- AppComponent -->
<g id="node1" class="node">
<title>AppComponent</title>
<polygon fill="#ffffb3" stroke="#000000" points="952.9399,-122 847.0601,-122 847.0601,-86 952.9399,-86 952.9399,-122"/>
<text text-anchor="middle" x="900" y="-99.8" font-family="Times,serif" font-size="14.00" fill="#000000">AppComponent</text>
</g>
<!-- AppModule -->
<g id="node8" class="node">
<title>AppModule</title>
<polygon fill="#8dd3c7" stroke="#000000" points="538.6571,-187 535.6571,-191 514.6571,-191 511.6571,-187 455.3429,-187 455.3429,-151 538.6571,-151 538.6571,-187"/>
<text text-anchor="middle" x="497" y="-164.8" font-family="Times,serif" font-size="14.00" fill="#000000">AppModule</text>
</g>
<!-- AppComponent&#45;&gt;AppModule -->
<g id="edge1" class="edge">
<title>AppComponent&#45;&gt;AppModule</title>
<path fill="none" stroke="#000000" d="M900,-122.2921C900,-144.2057 900,-178 900,-178 900,-178 548.9876,-178 548.9876,-178"/>
<polygon fill="#000000" stroke="#000000" points="548.9876,-174.5001 538.9876,-178 548.9876,-181.5001 548.9876,-174.5001"/>
</g>
<!-- ButtonsComponent -->
<g id="node2" class="node">
<title>ButtonsComponent</title>
<polygon fill="#ffffb3" stroke="#000000" points="829.3948,-122 704.6052,-122 704.6052,-86 829.3948,-86 829.3948,-122"/>
<text text-anchor="middle" x="767" y="-99.8" font-family="Times,serif" font-size="14.00" fill="#000000">ButtonsComponent</text>
</g>
<!-- ButtonsComponent&#45;&gt;AppModule -->
<g id="edge2" class="edge">
<title>ButtonsComponent&#45;&gt;AppModule</title>
<path fill="none" stroke="#000000" d="M767,-122.1061C767,-141.3391 767,-169 767,-169 767,-169 548.8913,-169 548.8913,-169"/>
<polygon fill="#000000" stroke="#000000" points="548.8913,-165.5001 538.8913,-169 548.8912,-172.5001 548.8913,-165.5001"/>
</g>
<!-- CardsComponent -->
<g id="node3" class="node">
<title>CardsComponent</title>
<polygon fill="#ffffb3" stroke="#000000" points="686.9888,-122 573.0112,-122 573.0112,-86 686.9888,-86 686.9888,-122"/>
<text text-anchor="middle" x="630" y="-99.8" font-family="Times,serif" font-size="14.00" fill="#000000">CardsComponent</text>
</g>
<!-- CardsComponent&#45;&gt;AppModule -->
<g id="edge3" class="edge">
<title>CardsComponent&#45;&gt;AppModule</title>
<path fill="none" stroke="#000000" d="M630,-122.027C630,-138.3976 630,-160 630,-160 630,-160 548.7171,-160 548.7171,-160"/>
<polygon fill="#000000" stroke="#000000" points="548.7172,-156.5001 538.7171,-160 548.7171,-163.5001 548.7172,-156.5001"/>
</g>
<!-- InputsComponent -->
<g id="node4" class="node">
<title>InputsComponent</title>
<polygon fill="#ffffb3" stroke="#000000" points="555.3287,-122 438.6713,-122 438.6713,-86 555.3287,-86 555.3287,-122"/>
<text text-anchor="middle" x="497" y="-99.8" font-family="Times,serif" font-size="14.00" fill="#000000">InputsComponent</text>
</g>
<!-- InputsComponent&#45;&gt;AppModule -->
<g id="edge4" class="edge">
<title>InputsComponent&#45;&gt;AppModule</title>
<path fill="none" stroke="#000000" d="M497,-122.1061C497,-122.1061 497,-140.991 497,-140.991"/>
<polygon fill="#000000" stroke="#000000" points="493.5001,-140.9909 497,-150.991 500.5001,-140.991 493.5001,-140.9909"/>
</g>
<!-- LayoutComponent -->
<g id="node5" class="node">
<title>LayoutComponent</title>
<polygon fill="#ffffb3" stroke="#000000" points="420.4902,-122 299.5098,-122 299.5098,-86 420.4902,-86 420.4902,-122"/>
<text text-anchor="middle" x="360" y="-99.8" font-family="Times,serif" font-size="14.00" fill="#000000">LayoutComponent</text>
</g>
<!-- LayoutComponent&#45;&gt;AppModule -->
<g id="edge5" class="edge">
<title>LayoutComponent&#45;&gt;AppModule</title>
<path fill="none" stroke="#000000" d="M360,-122.027C360,-138.3976 360,-160 360,-160 360,-160 445.1511,-160 445.1511,-160"/>
<polygon fill="#000000" stroke="#000000" points="445.1511,-163.5001 455.1511,-160 445.151,-156.5001 445.1511,-163.5001"/>
</g>
<!-- SelectComponent -->
<g id="node6" class="node">
<title>SelectComponent</title>
<polygon fill="#ffffb3" stroke="#000000" points="281.5409,-122 166.4591,-122 166.4591,-86 281.5409,-86 281.5409,-122"/>
<text text-anchor="middle" x="224" y="-99.8" font-family="Times,serif" font-size="14.00" fill="#000000">SelectComponent</text>
</g>
<!-- SelectComponent&#45;&gt;AppModule -->
<g id="edge6" class="edge">
<title>SelectComponent&#45;&gt;AppModule</title>
<path fill="none" stroke="#000000" d="M224,-122.1061C224,-141.3391 224,-169 224,-169 224,-169 445.24,-169 445.24,-169"/>
<polygon fill="#000000" stroke="#000000" points="445.24,-172.5001 455.24,-169 445.24,-165.5001 445.24,-172.5001"/>
</g>
<!-- StepperComponent -->
<g id="node7" class="node">
<title>StepperComponent</title>
<polygon fill="#ffffb3" stroke="#000000" points="148.0954,-122 23.9046,-122 23.9046,-86 148.0954,-86 148.0954,-122"/>
<text text-anchor="middle" x="86" y="-99.8" font-family="Times,serif" font-size="14.00" fill="#000000">StepperComponent</text>
</g>
<!-- StepperComponent&#45;&gt;AppModule -->
<g id="edge7" class="edge">
<title>StepperComponent&#45;&gt;AppModule</title>
<path fill="none" stroke="#000000" d="M86,-122.2921C86,-144.2057 86,-178 86,-178 86,-178 445.3293,-178 445.3293,-178"/>
<polygon fill="#000000" stroke="#000000" points="445.3294,-181.5001 455.3293,-178 445.3293,-174.5001 445.3294,-181.5001"/>
</g>
<!-- AppComponent  -->
<g id="node9" class="node">
<title>AppComponent </title>
<polygon fill="#80b1d3" stroke="#000000" points="551.439,-252 442.561,-252 442.561,-216 551.439,-216 551.439,-252"/>
<text text-anchor="middle" x="497" y="-229.8" font-family="Times,serif" font-size="14.00" fill="#000000">AppComponent </text>
</g>
<!-- AppModule&#45;&gt;AppComponent  -->
<g id="edge8" class="edge">
<title>AppModule&#45;&gt;AppComponent </title>
<path fill="none" stroke="#000000" stroke-dasharray="1,5" d="M497,-187.1061C497,-187.1061 497,-205.991 497,-205.991"/>
<polygon fill="#000000" stroke="#000000" points="493.5001,-205.9909 497,-215.991 500.5001,-205.991 493.5001,-205.9909"/>
</g>
</g>
</svg>
